<svg width="305" height="42" viewBox="0 0 305 42" fill="none" xmlns="http://www.w3.org/2000/svg">
<path d="M197.883 6.64371H202.856C202.856 6.76926 202.856 6.8948 202.856 7.08311C202.856 8.40131 202.415 9.53119 201.597 10.41C200.779 11.2888 199.645 11.7282 198.323 11.7282C197.001 11.7282 195.868 11.2888 194.987 10.3472C194.105 9.46842 193.602 8.33854 193.602 7.02034C193.602 5.70215 194.042 4.57226 194.924 3.69347C195.805 2.81467 196.938 2.3125 198.26 2.3125C200.275 2.3125 201.849 3.31684 202.541 4.94889L201.597 5.26275C200.967 4.00732 199.771 3.31684 198.323 3.31684C197.316 3.31684 196.435 3.69347 195.742 4.38395C195.05 5.07443 194.735 5.95323 194.735 7.02034C194.735 8.08745 195.113 8.90348 195.805 9.65673C196.498 10.3472 197.379 10.7238 198.386 10.7238C199.331 10.7238 200.086 10.41 200.716 9.84505C201.345 9.2801 201.723 8.52685 201.849 7.58528H197.883V6.64371Z" fill="#005CB9"/>
<path d="M210.851 4.88672L210.788 5.89106C210.725 5.89106 210.599 5.89106 210.41 5.89106C208.71 5.89106 207.766 7.14648 207.766 9.02962V11.6032H206.759V4.94949H207.703V6.58154C208.333 5.45166 209.214 4.88672 210.347 4.88672C210.599 4.88672 210.725 4.88672 210.851 4.88672Z" fill="#005CB9"/>
<path d="M220.107 4.94922V11.603H219.099V10.5359C218.533 11.3519 217.714 11.7913 216.581 11.7913C215.763 11.7913 215.133 11.5402 214.629 11.038C214.126 10.5359 213.874 9.84537 213.874 8.96658V4.94922H214.881V8.71549C214.881 9.97092 215.637 10.7869 216.707 10.7869C218.092 10.7869 219.036 9.84537 219.036 8.15055V4.94922H220.107Z" fill="#005CB9"/>
<path d="M230.369 5.76411C230.998 6.39182 231.376 7.27061 231.376 8.27495C231.376 9.27929 231.061 10.1581 230.369 10.7858C229.739 11.4135 228.921 11.7901 228.039 11.7901C226.906 11.7901 226.025 11.4135 225.395 10.5347V13.8616H224.388V4.94808H225.395V6.01519C226.025 5.19916 226.906 4.75977 228.039 4.75977C228.921 4.75977 229.676 5.07362 230.369 5.76411ZM229.613 10.1581C230.117 9.65592 230.306 9.02821 230.306 8.27495C230.306 7.5217 230.054 6.89399 229.613 6.39182C229.172 5.88965 228.543 5.70133 227.85 5.70133C227.221 5.70133 226.591 5.95242 226.088 6.45459C225.584 6.95676 225.332 7.5217 225.332 8.33772C225.332 9.09098 225.584 9.71869 226.088 10.2209C226.591 10.723 227.158 10.9113 227.85 10.9113C228.543 10.8486 229.109 10.5975 229.613 10.1581Z" fill="#005CB9"/>
<path d="M240.379 5.76411C241.071 6.39182 241.386 7.20784 241.386 8.27495C241.386 9.27929 241.071 10.0953 240.379 10.7858C239.686 11.4763 238.868 11.7901 237.861 11.7901C236.853 11.7901 236.035 11.4763 235.342 10.7858C234.65 10.0953 234.335 9.27929 234.335 8.27495C234.335 7.27061 234.65 6.45459 235.342 5.76411C236.035 5.07362 236.853 4.75977 237.861 4.75977C238.868 4.75977 239.686 5.07362 240.379 5.76411ZM239.623 10.0953C240.127 9.59315 240.379 8.96544 240.379 8.21218C240.379 7.45893 240.127 6.83122 239.623 6.39182C239.12 5.88965 238.553 5.63856 237.861 5.63856C237.168 5.63856 236.538 5.88965 236.098 6.39182C235.594 6.89399 235.342 7.45893 235.342 8.21218C235.342 8.96544 235.594 9.59315 236.098 10.0953C236.601 10.5975 237.168 10.8486 237.861 10.8486C238.553 10.8486 239.12 10.5975 239.623 10.0953Z" fill="#005CB9"/>
<path d="M193.564 23.4677L207.4 37.4565L212.346 32.4381L198.51 18.4492L193.564 23.4677Z" fill="#003764"/>
<path d="M197.258 17.1952C195.881 15.8151 193.69 15.8151 192.312 17.1952L177.162 32.4387L182.108 37.4571L194.754 24.6601C197.509 21.9 201.953 21.9 204.645 24.6601L197.258 17.1952Z" fill="#005CB9"/>
<path d="M259.361 23.4677L273.197 37.4565L278.143 32.4381L264.307 18.4492L259.361 23.4677Z" fill="#003764"/>
<path d="M263.055 17.1952C261.678 15.8151 259.487 15.8151 258.109 17.1952L242.896 32.4387L247.842 37.4571L260.488 24.6601C263.243 21.9 267.688 21.9 270.38 24.6601L263.055 17.1952Z" fill="#0060A4"/>
<path d="M229.187 30.1803L215.289 16.1914L210.343 21.1471L224.241 35.136L229.187 30.1803Z" fill="#A32035"/>
<path d="M225.493 36.3908C226.87 37.7709 229.061 37.7709 230.439 36.3908L245.589 21.1473L240.643 16.1289L227.997 28.9259C225.242 31.6861 220.798 31.6861 218.043 28.9259L225.493 36.3908Z" fill="#E1251B"/>
<path d="M281.836 16.1289H288.409V32.4388H281.836V16.1289Z" fill="#003764"/>
<path d="M281.836 34.0696C281.836 35.8888 283.338 37.3943 285.154 37.3943H303.372V30.8076H288.409C284.778 30.8076 281.836 27.8593 281.836 24.1582V34.0696Z" fill="#0060A4"/>
<line x1="160.5" y1="4" x2="160.5" y2="37" stroke="#CFD8E6"/>
<g clip-path="url(#clip0_1039_9413)">
<path d="M58.1838 14.7472C58.1838 21.9158 53.2039 27.721 44.9887 27.721C36.7735 27.721 31.8457 21.9158 31.8457 14.7472C31.8457 7.57868 36.8777 1.77344 44.9366 1.77344C52.9956 1.77344 58.1838 7.62988 58.1838 14.7472ZM38.1145 14.7472C38.1145 18.5363 40.4254 22.0694 44.9952 22.0694C49.565 22.0694 51.8759 18.5363 51.8759 14.7472C51.8759 10.9581 49.2069 7.38027 44.9952 7.38027C40.4775 7.38027 38.1145 11.0157 38.1145 14.7472" fill="#000927"/>
<path d="M68.8264 2.2793V15.3043C68.8264 19.087 70.929 21.9672 74.9325 21.9672C78.9359 21.9672 81.4031 18.7862 81.4031 15.0035V2.2793H87.6133V27.2156H82.015L81.6049 23.8361C78.988 26.3579 76.5729 27.574 73.0316 27.574C66.9712 27.574 62.5576 23.0809 62.5576 15.3619V2.2793H68.8199H68.8264Z" fill="#000927"/>
<path d="M27.5684 14.088C27.5684 11.515 26.8523 9.24285 24.6455 6.66985C23.2134 4.85211 20.3817 3.03438 20.3817 3.03438C18.6371 1.87589 15.864 1.47266 13.8656 1.47266C6.77655 1.47266 0 5.70978 0 14.088C0 21.8646 5.49415 26.6074 13.859 26.6074C18.5785 26.6074 21.0457 28.5275 21.0457 31.5037C21.0457 34.48 17.2441 36.0481 13.7549 36.0481C9.80353 35.9969 6.10605 34.0319 6.31436 30.5437H0.104154C-0.149722 37.661 4.97988 42.0005 13.7614 42.0005C20.5379 42.0005 27.5684 38.5699 27.5684 31.5037C27.5684 29.078 26.6961 25.3465 21.3061 23.4263C25.4658 21.5574 27.5684 18.53 27.5684 14.088M13.859 20.9493C9.75146 20.9493 6.26228 18.4275 6.26228 14.088C6.26228 9.44126 9.75146 7.17549 13.859 7.17549C17.9666 7.17549 21.2996 9.85089 21.2996 14.088C21.2996 18.3251 17.9601 20.9493 13.859 20.9493" fill="#000927"/>
<path d="M27.3999 0H20.3174V6.96373H27.3999V0Z" fill="#00DDF4"/>
<path d="M102.729 10.419C101.798 11.3343 100.613 11.7887 99.3827 11.7887C96.2059 11.7887 94.6176 9.69577 94.6046 7.18038C94.5916 4.71619 96.1929 2.48242 99.3827 2.48242C100.606 2.48242 101.837 2.91125 102.637 3.83933L102.071 4.39617C101.323 3.67291 100.366 3.31449 99.3827 3.31449C96.8244 3.31449 95.5224 5.17063 95.5224 7.17398C95.5224 9.28614 96.8244 10.9567 99.3827 10.9567C100.366 10.9567 101.401 10.5726 102.136 9.84938L102.729 10.4318V10.419Z" fill="#000927"/>
<path d="M110.338 8.47366C110.338 10.445 108.919 11.7507 107.005 11.7507C105.091 11.7507 103.672 10.445 103.672 8.47366C103.672 6.50231 105.065 5.1582 107.005 5.1582C108.945 5.1582 110.338 6.50231 110.338 8.47366M104.551 8.47366C104.551 9.95857 105.573 10.9378 107.005 10.9378C108.437 10.9378 109.459 9.95857 109.459 8.47366C109.459 6.98874 108.45 5.94546 107.005 5.94546C105.56 5.94546 104.551 7.00154 104.551 8.47366Z" fill="#000927"/>
<path d="M116.646 11.6483V7.96162C116.646 6.84153 115.885 5.97747 114.745 5.97747C113.606 5.97747 112.845 6.84153 112.845 7.96162V11.6483H111.966V5.27341H112.793L112.832 6.26549C113.255 5.46543 114.055 5.1582 114.837 5.1582C115.767 5.1582 116.737 5.55503 117.121 6.63031C117.558 5.62544 118.502 5.1582 119.458 5.1582C121.112 5.1582 122.186 6.25269 122.186 7.92961V11.6419H121.307V7.92961C121.307 6.79673 120.585 5.97106 119.445 5.97106C118.306 5.97106 117.532 6.83513 117.532 7.95522V11.6419H116.653L116.646 11.6483Z" fill="#000927"/>
<path d="M124.151 14.6894V5.27428H125.004L125.03 6.63119C125.531 5.72872 126.527 5.17188 127.654 5.17188C129.476 5.22308 130.843 6.46477 130.843 8.46173C130.843 10.4587 129.45 11.7772 127.562 11.7772C126.566 11.7772 125.544 11.3227 125.017 10.3563V14.6894H124.151ZM129.964 8.45533C129.964 6.868 128.916 6.00394 127.523 6.00394C126.13 6.00394 125.095 7.04722 125.095 8.46813C125.095 9.88903 126.13 10.9323 127.523 10.9323C128.916 10.9323 129.964 10.0554 129.964 8.45533" fill="#000927"/>
<path d="M133.305 5.27428L133.357 6.31756C133.78 5.4663 134.639 5.17188 135.414 5.17188C136.006 5.17188 136.41 5.29988 136.885 5.61991L136.481 6.34316C136.156 6.12555 135.785 6.01034 135.368 6.01034C134.255 6.02314 133.363 6.8616 133.363 8.02009V11.6428H132.484V5.27428H133.311H133.305Z" fill="#000927"/>
<path d="M143.173 5.27461H144V11.6495H143.186V10.3886C142.619 11.3295 141.584 11.7839 140.615 11.7839C138.779 11.7839 137.308 10.491 137.308 8.46846C137.308 6.4459 138.792 5.19141 140.628 5.19141C141.624 5.19141 142.691 5.64584 143.173 6.54831V5.28101V5.27461ZM138.186 8.46206C138.186 9.97257 139.287 10.9646 140.654 10.9646C144 10.9646 144 5.97227 140.654 5.97227C139.287 5.97227 138.186 6.96434 138.186 8.46206" fill="#000927"/>
<path d="M95.6405 27.1249V21.5629H94.3516V20.8141H95.6405V20.2828C95.6405 18.9003 96.324 18.0234 97.7105 18.0234C98.2248 18.0234 98.6935 18.1899 99.1036 18.4779L98.7261 19.1243C98.368 18.9195 98.1076 18.8043 97.7301 18.8043C96.9815 18.8043 96.5258 19.2587 96.5258 20.2892V20.8205H98.5959V21.5693H96.5258V27.1313H95.647L95.6405 27.1249Z" fill="#000927"/>
<path d="M105.065 22.0177V20.7568H105.892V27.1317H105.078V25.8708C104.512 26.8116 103.477 27.2661 102.507 27.2661C100.671 27.2661 99.2002 25.9732 99.2002 23.9506C99.2002 21.9281 100.684 20.6736 102.52 20.6736C103.516 20.6736 104.584 21.1216 105.065 22.0305M102.546 21.4608C101.179 21.4608 100.079 22.4529 100.079 23.9506C100.079 25.4483 101.179 26.4532 102.546 26.4532C105.892 26.4532 105.892 21.4608 102.546 21.4608ZM104.174 18.043H103.126L102.143 19.6431V19.6943H102.943L104.18 18.0686V18.043H104.174Z" fill="#000927"/>
<path d="M113.275 26.2606C112.591 26.9198 111.751 27.2271 110.873 27.2271C109.037 27.2271 107.514 26.011 107.514 23.9372C107.514 21.8634 108.998 20.6602 110.873 20.6602C111.738 20.6602 112.5 20.9546 113.171 21.601L112.591 22.1579C112.103 21.6906 111.517 21.473 110.886 21.473C109.506 21.473 108.392 22.3755 108.392 23.9372C108.392 25.4989 109.519 26.4014 110.873 26.4014C111.53 26.4014 112.188 26.1582 112.669 25.6781L113.275 26.2606V26.2606Z" fill="#000927"/>
<path d="M115.781 18.7542C115.781 19.567 114.531 19.567 114.531 18.7542C114.531 17.9413 115.781 17.9413 115.781 18.7542ZM114.707 27.126H115.586V20.7255H114.707V27.126Z" fill="#000927"/>
<path d="M118.6 18.0938H117.721V27.1248H118.6V18.0938Z" fill="#000927"/>
</g>
<defs>
<clipPath id="clip0_1039_9413">
<rect width="144" height="42" fill="white"/>
</clipPath>
</defs>
</svg>
